<svg viewBox="0 0 1792 1792" xmlns="http://www.w3.org/2000/svg">
  <path
    d="M 1490 1258 C 1490 1284.667 1480.667 1307.333 1462 1326 L 1326 1462 C 1307.333 1480.667 1284.667 1490 1258 1490 C 1231.333 1490 1208.667 1480.667 1190 1462 L 896 1168 L 602 1462 C 583.333 1480.667 560.667 1490 534 1490 C 507.333 1490 484.667 1480.667 466 1462 L 330 1326 C 311.333 1307.333 302 1284.667 302 1258 C 302 1231.333 311.333 1208.667 330 1190 L 624 896 L 330 602 C 311.333 583.333 302 560.667 302 534 C 302 507.333 311.333 484.667 330 466 L 466 330 C 484.667 311.333 507.333 302 534 302 C 560.667 302 583.333 311.333 602 330 L 896 624 L 1190 330 C 1208.667 311.333 1231.333 302 1258 302 C 1284.667 302 1307.333 311.333 1326 330 L 1462 466 C 1480.667 484.667 1490 507.333 1490 534 C 1490 560.667 1480.667 583.333 1462 602 L 1168 896 L 1462 1190 C 1480.667 1208.667 1490 1231.333 1490 1258 Z"
    fill="currentColor"/>
</svg>
