<svg viewBox="0 0 1792 1792" xmlns="http://www.w3.org/2000/svg">
  <path
    d="M 1600 800 L 1600 992 C 1600 1018.667 1590.667 1041.333 1572 1060 C 1553.333 1078.667 1530.667 1088 1504 1088 L 1088 1088 L 1088 1504 C 1088 1530.667 1078.667 1553.333 1060 1572 C 1041.333 1590.667 1018.667 1600 992 1600 L 800 1600 C 773.333 1600 750.667 1590.667 732 1572 C 713.333 1553.333 704 1530.667 704 1504 L 704 1088 L 288 1088 C 261.333 1088 238.667 1078.667 220 1060 C 201.333 1041.333 192 1018.667 192 992 L 192 800 C 192 773.333 201.333 750.667 220 732 C 238.667 713.333 261.333 704 288 704 L 704 704 L 704 288 C 704 261.333 713.333 238.667 732 220 C 750.667 201.333 773.333 192 800 192 L 992 192 C 1018.667 192 1041.333 201.333 1060 220 C 1078.667 238.667 1088 261.333 1088 288 L 1088 704 L 1504 704 C 1530.667 704 1553.333 713.333 1572 732 C 1590.667 750.667 1600 773.333 1600 800 Z"
    fill="currentColor"/>
</svg>
