<svg viewBox="0 0 2091 2091" xmlns="http://www.w3.org/2000/svg">
  <path
    d="M 1621.5 1045 C 1621.5 967 1606.333 892.5 1576 821.5 C 1545.667 750.5 1504.667 689.167 1453 637.5 C 1401.333 585.833 1340 544.833 1269 514.5 C 1198 484.167 1123.5 469 1045.5 469 C 967.5 469 893 484.167 822 514.5 C 751 544.833 689.667 585.833 638 637.5 C 586.333 689.167 545.333 750.5 515 821.5 C 484.667 892.5 469.5 967 469.5 1045 C 469.5 1123 484.667 1197.5 515 1268.5 C 545.333 1339.5 586.333 1400.833 638 1452.5 C 689.667 1504.167 751 1545.167 822 1575.5 C 893 1605.833 967.5 1621 1045.5 1621 C 1123.5 1621 1198 1605.833 1269 1575.5 C 1340 1545.167 1401.333 1504.167 1453 1452.5 C 1504.667 1400.833 1545.667 1339.5 1576 1268.5 C 1606.333 1197.5 1621.5 1123 1621.5 1045 Z M 1897.5 1322 C 1894.833 1332 1888.167 1338.667 1877.5 1342 L 1585.5 1438 L 1585.5 1744 C 1585.5 1754.667 1581.167 1763.333 1572.5 1770 C 1562.5 1776.667 1552.833 1778 1543.5 1774 L 1251.5 1680 L 1071.5 1928 C 1064.833 1936.667 1056.167 1941 1045.5 1941 C 1034.833 1941 1026.167 1936.667 1019.5 1928 L 839.5 1680 L 547.5 1774 C 538.167 1778 528.5 1776.667 518.5 1770 C 509.833 1763.333 505.5 1754.667 505.5 1744 L 505.5 1438 L 213.5 1342 C 202.833 1338.667 196.167 1332 193.5 1322 C 190.167 1310.667 191.5 1301 197.5 1293 L 377.5 1045 L 197.5 797 C 191.5 788.333 190.167 778.667 193.5 768 C 196.167 758 202.833 751.333 213.5 748 L 505.5 652 L 505.5 346 C 505.5 335.333 509.833 326.667 518.5 320 C 528.5 313.333 538.167 312 547.5 316 L 839.5 410 L 1019.5 162 C 1025.5 154 1034.167 150 1045.5 150 C 1056.833 150 1065.5 154 1071.5 162 L 1251.5 410 L 1543.5 316 C 1552.833 312 1562.5 313.333 1572.5 320 C 1581.167 326.667 1585.5 335.333 1585.5 346 L 1585.5 652 L 1877.5 748 C 1888.167 751.333 1894.833 758 1897.5 768 C 1900.833 778.667 1899.5 788.333 1893.5 797 L 1713.5 1045 L 1893.5 1293 C 1899.5 1301 1900.833 1310.667 1897.5 1322 Z"
    fill="currentColor"/>
</svg>
